<svg width="189" height="103" viewBox="0 0 189 103" fill="none" xmlns="http://www.w3.org/2000/svg">
<rect width="189" height="103" fill="black"/>
<path fill-rule="evenodd" clip-rule="evenodd" d="M166.803 47.5786V39.2893V31H167.737H168.671L168.686 34.2554L168.7 37.5107L168.95 37.169C169.427 36.5146 170.317 35.9288 171.205 35.6847C171.856 35.5059 173.257 35.5089 173.939 35.6905C174.728 35.9005 175.207 36.1667 175.729 36.6855C176.212 37.1662 176.487 37.6131 176.714 38.2891C176.978 39.0745 176.999 39.4805 177 43.6603L177 47.5786H176.098H175.196L175.172 43.632C175.15 40.0633 175.15 39.4681 174.946 38.955C174.902 38.843 174.848 38.735 174.782 38.6007C174.326 37.6757 173.242 37.1431 172.024 37.2452C170.389 37.3821 169.281 38.3102 168.828 39.9237C168.708 40.3522 168.704 40.464 168.685 43.9715L168.667 47.5786H167.735H166.803ZM98.5058 58.9409L98.5205 55.57L98.5351 52.1992H99.4411H100.347V60.4884V68.7777H99.4406H98.5342V67.6744C98.5342 67.0675 98.515 66.5711 98.4917 66.5711C98.4683 66.5712 98.3737 66.6921 98.2815 66.8399C98.1893 66.9876 97.8706 67.3527 97.5733 67.6511C97.1107 68.1155 96.9554 68.2316 96.4947 68.4579C95.8176 68.7905 95.2223 68.9422 94.4235 68.9859C91.3714 69.1529 88.9 67.0349 88.4258 63.8459C88.3134 63.0899 88.3133 62.5843 88.4253 61.8312C88.8611 58.8998 90.9887 56.8996 93.8379 56.7427C95.6767 56.6415 97.1676 57.2404 98.1341 58.4685L98.5058 58.9409ZM88.3169 39.5908C88.9997 37.4286 90.7955 35.9166 93.0695 35.5893C94.1759 35.43 95.4501 35.5878 96.4478 36.0076C97.6968 36.5331 98.7351 37.6393 99.2104 38.9512C99.3025 39.2055 99.3955 39.5072 99.4169 39.6216L99.456 39.8296L98.5103 39.8141L97.5646 39.7985L97.46 39.5018C97.1624 38.6574 96.5349 37.9466 95.7605 37.5766C95.1495 37.2847 94.7491 37.2004 94.0042 37.2069C93.2669 37.2133 92.7543 37.3293 92.1526 37.6261C90.6067 38.3883 89.74 40.1679 89.9299 42.1897C89.9971 42.9053 90.1129 43.3249 90.4177 43.9573C90.637 44.4122 90.7518 44.5692 91.165 44.9786C91.9828 45.789 92.7876 46.1135 94.0042 46.1233C94.7583 46.1293 95.1858 46.038 95.7888 45.7417C96.5733 45.3563 97.176 44.6384 97.4888 43.7168L97.6568 43.2217H98.6047C99.3369 43.2217 99.5476 43.2378 99.5307 43.2925C99.5187 43.3314 99.4646 43.5542 99.4105 43.7876C99.2159 44.6263 98.7548 45.5065 98.1743 46.1472C97.5786 46.8047 96.6387 47.3452 95.6188 47.6167C95.1048 47.7535 94.9578 47.7675 94.0326 47.7675C93.1163 47.7675 92.9578 47.7528 92.4704 47.6222C91.7359 47.4255 91.1652 47.1804 90.6288 46.8313C90.1036 46.4895 89.4172 45.8246 89.093 45.3436C87.9945 43.7134 87.7013 41.5402 88.3169 39.5908ZM138.918 36.0475C139.425 35.787 139.642 35.712 140.196 35.6061C140.763 35.4978 141.937 35.5414 142.527 35.6926C143.257 35.8798 143.866 36.2113 144.339 36.679C144.802 37.1367 145.109 37.6442 145.314 38.2879C145.596 39.1749 145.614 39.5004 145.614 43.6885L145.615 47.5786H144.682H143.749L143.732 43.4905C143.716 39.4363 143.714 39.3997 143.591 39.0747C143.191 38.0218 142.626 37.5232 141.583 37.3012C141.1 37.1985 140.44 37.224 139.885 37.3671C138.781 37.6516 137.915 38.5061 137.551 39.6696C137.309 40.4454 137.287 40.828 137.287 44.3009V47.5786H136.38H135.474V41.6657V35.7529H136.379H137.284L137.299 36.6653L137.315 37.5776L137.537 37.2558C137.853 36.7967 138.413 36.3075 138.918 36.0475ZM150.861 39.5908C151.544 37.4286 153.34 35.9166 155.614 35.5893C156.72 35.43 157.994 35.5878 158.992 36.0076C160.241 36.5331 161.279 37.6393 161.755 38.9512C161.847 39.2055 161.94 39.5072 161.961 39.6216L162 39.8296L161.054 39.8141L160.109 39.7985L160.004 39.5018C159.707 38.6574 159.079 37.9466 158.305 37.5766C157.694 37.2847 157.293 37.2004 156.548 37.2069C155.811 37.2133 155.299 37.3293 154.697 37.6261C153.151 38.3883 152.284 40.1679 152.474 42.1897C152.541 42.9053 152.657 43.3249 152.962 43.9573C153.181 44.4122 153.296 44.5692 153.709 44.9786C154.527 45.789 155.332 46.1135 156.548 46.1233C157.303 46.1293 157.73 46.038 158.333 45.7417C159.118 45.3563 159.72 44.6384 160.033 43.7168L160.201 43.2217H161.149C161.881 43.2217 162.092 43.2378 162.075 43.2925C162.063 43.3314 162.009 43.5542 161.955 43.7876C161.76 44.6263 161.299 45.5065 160.718 46.1472C160.123 46.8047 159.183 47.3452 158.163 47.6167C157.649 47.7535 157.502 47.7675 156.577 47.7675C155.661 47.7675 155.502 47.7528 155.015 47.6222C154.28 47.4255 153.709 47.1804 153.173 46.8313C152.648 46.4895 151.961 45.8246 151.637 45.3436C150.539 43.7134 150.246 41.5402 150.861 39.5908ZM106.341 57.9099C107.044 57.3776 107.944 56.9915 108.915 56.8065C109.506 56.6939 110.774 56.7383 111.366 56.8924C112.463 57.1781 113.247 57.7307 113.918 58.6908C114.01 58.8223 114.104 58.9306 114.128 58.9312C114.151 58.9319 114.17 58.4868 114.17 57.9422V56.9521H115.077H115.983V62.8649V68.7777H115.077H114.17V67.6744C114.17 67.0675 114.151 66.5718 114.128 66.5728C114.104 66.5738 113.973 66.7409 113.836 66.9442C113.072 68.0757 111.99 68.7645 110.696 68.9429C108.92 69.1879 107.171 68.637 105.886 67.4279C103.17 64.8715 103.396 60.1399 106.341 57.9099ZM109.48 38.0421C110.235 36.666 111.803 35.8464 114.062 35.6461C114.357 35.62 114.808 35.5952 115.065 35.591L115.532 35.5832V36.5451V37.5069L114.47 37.5073C111.914 37.5081 110.645 38.0398 109.985 39.3853C109.512 40.3494 109.416 41.0481 109.374 43.8017L109.341 45.9377H111.672H114.003V46.7581V47.5786H109.074H104.145V46.759V45.9394L105.83 45.9244L107.516 45.9094V41.6657V37.4221L105.83 37.4071L104.145 37.3921V36.5725V35.7529H106.75H109.355L109.37 36.9836C109.385 38.1679 109.389 38.2077 109.48 38.0421ZM120.358 45.6479C119.809 44.5079 119.785 44.2497 119.783 39.5863L119.781 35.7529H120.716H121.651V39.5955C121.651 43.8371 121.66 43.9725 121.997 44.6778C122.461 45.649 123.468 46.1667 124.738 46.0867C125.347 46.0482 125.735 45.941 126.268 45.6637C126.98 45.2928 127.555 44.5824 127.854 43.7027C128.085 43.0223 128.109 42.598 128.109 39.1054L128.109 35.7529H129.044H129.979V41.6657V47.5786H129.044H128.109V46.6598V45.7412L127.917 46.0262C127.614 46.4757 126.925 47.0817 126.455 47.3127C125.692 47.6877 125.258 47.7768 124.228 47.7703C123.168 47.7636 122.71 47.6671 121.937 47.2878C121.228 46.9396 120.731 46.4234 120.358 45.6479ZM97.9322 60.4656C97.4585 59.5014 96.6268 58.82 95.5857 58.5433C93.3176 57.9404 91.0838 59.2165 90.4295 61.4888C90.2753 62.0245 90.2216 63.0727 90.3179 63.6712C90.5958 65.3993 91.7752 66.745 93.4103 67.1998C93.9757 67.357 94.9099 67.3693 95.5033 67.2272C97.4942 66.7505 98.6947 64.7258 98.4334 62.2849C98.3465 61.4728 98.2438 61.0999 97.9322 60.4656ZM113.562 60.4601C113.088 59.4986 112.256 58.8176 111.222 58.5437C110.386 58.3223 109.573 58.3492 108.737 58.6259C107.756 58.9506 106.86 59.7417 106.389 60.7006C105.989 61.5139 105.928 61.804 105.93 62.8932C105.932 63.7897 105.939 63.8482 106.112 64.3643C106.364 65.113 106.64 65.5588 107.201 66.1199C108.025 66.9436 108.952 67.3261 110.12 67.3235C111.304 67.3209 112.098 67.0128 112.844 66.2658C113.363 65.7461 113.636 65.2972 113.85 64.6113C114.274 63.2561 114.165 61.681 113.562 60.4601ZM121.852 68.2373C122.813 68.7458 123.935 69 125.219 69C126.512 69 127.639 68.7417 128.6 68.2251C129.57 67.7005 130.32 66.9539 130.85 65.9853C131.379 65.0168 131.644 63.8585 131.644 62.5106C131.644 61.1546 131.379 59.9924 130.85 59.0238C130.32 58.0552 129.57 57.3167 128.6 56.8082C127.639 56.2997 126.512 56.0455 125.219 56.0455C123.935 56.0455 122.813 56.3078 121.852 56.8324C120.891 57.349 120.141 58.0915 119.602 59.0601C119.073 60.0287 118.808 61.1869 118.808 62.5348C118.808 63.8989 119.073 65.0652 119.602 66.0338C120.141 66.9943 120.891 67.7288 121.852 68.2373ZM128.29 65.9369C127.572 66.7683 126.548 67.1839 125.219 67.1839C123.863 67.1839 122.831 66.7683 122.121 65.9369C121.412 65.1056 121.057 63.9715 121.057 62.5348C121.057 61.0336 121.412 59.8794 122.121 59.0722C122.831 58.257 123.863 57.8494 125.219 57.8494C126.593 57.8494 127.63 58.2651 128.331 59.0964C129.031 59.9278 129.381 61.0658 129.381 62.5106C129.381 63.9635 129.018 65.1056 128.29 65.9369Z" fill="white"/>
<path d="M78 52C78 70.2254 63.2254 85 45 85C26.7746 85 12 70.2254 12 52C12 33.7746 26.7746 19 45 19C63.2254 19 78 33.7746 78 52ZM15.3736 52C15.3736 68.3622 28.6378 81.6264 45 81.6264C61.3622 81.6264 74.6264 68.3622 74.6264 52C74.6264 35.6378 61.3622 22.3736 45 22.3736C28.6378 22.3736 15.3736 35.6378 15.3736 52Z" fill="white"/>
<path d="M45.5 69V36C52.3 34 59.3333 36.8334 62 38.5V66C57.2 69.2 49 69.3334 45.5 69Z" fill="white"/>
<path d="M30 43.5L40 50L30 56.5" stroke="white" stroke-width="4" stroke-linecap="round" stroke-linejoin="round"/>
</svg>
