<svg width="169" height="120" viewBox="0 0 169 120" fill="none" xmlns="http://www.w3.org/2000/svg">
<path d="M2 7L0 18L56.5 86H1V119.5H166.5V86H111.5L168.5 18L164.5 7L146 0L83 28.5L26 0L2 7Z" fill="#183555"/>
<path d="M23.5 5L6.5 10L83.5 69L161.5 10L147.5 5L83.5 37.5L23.5 5Z" fill="#E74D15"/>
<rect x="6.5" y="90.5" width="155" height="25" fill="#E74D15"/>
<path d="M10.495 111V94.785H14.75V101.731H14.796L21.006 94.785H25.974L18.108 103.318V101.639L26.411 111H21.282L14.796 103.686H14.75V111H10.495Z" fill="white"/>
<path d="M24.1717 111L31.7617 94.785H35.2117L42.8477 111H38.5927L36.6377 106.538L38.2707 107.711H28.7487L30.3587 106.538L28.4267 111H24.1717ZM33.4637 99.155L30.7727 105.572L30.1287 104.491H36.8677L36.2927 105.572L33.5787 99.155H33.4637Z" fill="white"/>
<path d="M43.9185 111V94.785H47.5985L52.9115 106.676H52.1525L57.4425 94.785H61.1455V111H57.3045V101.064H58.2935L53.6935 111H51.3015L46.6785 101.064H47.7365V111H43.9185Z" fill="white"/>
<path d="M64.1766 111V94.785H75.8146V98.028H68.2476V101.133H75.2626V104.399H68.2476V107.734H75.8146V111H64.1766Z" fill="white"/>
<path d="M75.787 111L83.377 94.785H86.827L94.463 111H90.208L88.253 106.538L89.886 107.711H80.364L81.974 106.538L80.042 111H75.787ZM85.079 99.155L82.388 105.572L81.744 104.491H88.483L87.908 105.572L85.194 99.155H85.079Z" fill="white"/>
<path d="M101.991 111V94.785H103.9V109.344H112.088V111H101.991Z" fill="white"/>
<path d="M112.442 111L119.595 94.785H121.251L128.519 111H126.541L124.517 106.377L125.368 106.86H115.455L116.375 106.377L114.397 111H112.442ZM120.4 96.97L116.674 105.71L116.122 105.296H124.678L124.264 105.71L120.446 96.97H120.4Z" fill="white"/>
<path d="M130.965 111V94.785H137.451C139.169 94.785 140.495 95.153 141.43 95.889C142.366 96.625 142.833 97.6677 142.833 99.017C142.833 100.029 142.527 100.872 141.913 101.547C141.315 102.222 140.48 102.666 139.406 102.881V102.559C140.602 102.697 141.538 103.111 142.212 103.801C142.902 104.476 143.247 105.388 143.247 106.538C143.247 107.979 142.764 109.083 141.798 109.85C140.848 110.617 139.498 111 137.75 111H130.965ZM132.828 109.459H137.566C138.732 109.459 139.652 109.237 140.326 108.792C141.016 108.332 141.361 107.573 141.361 106.515C141.361 105.442 141.016 104.683 140.326 104.238C139.652 103.778 138.732 103.548 137.566 103.548H132.828V109.459ZM132.828 102.03H137.175C138.433 102.03 139.376 101.785 140.004 101.294C140.633 100.803 140.947 100.098 140.947 99.178C140.947 98.2273 140.633 97.5143 140.004 97.039C139.376 96.5483 138.433 96.303 137.175 96.303H132.828V102.03Z" fill="white"/>
<path d="M151.888 111.207C150.585 111.207 149.42 111.038 148.392 110.701C147.365 110.364 146.468 109.881 145.701 109.252L146.391 107.734C146.928 108.133 147.465 108.47 148.001 108.746C148.553 109.007 149.144 109.206 149.772 109.344C150.401 109.467 151.106 109.528 151.888 109.528C153.253 109.528 154.265 109.275 154.924 108.769C155.584 108.263 155.913 107.588 155.913 106.745C155.913 106.024 155.683 105.472 155.223 105.089C154.763 104.706 153.958 104.399 152.808 104.169L150.393 103.686C148.906 103.379 147.794 102.881 147.058 102.191C146.338 101.501 145.977 100.566 145.977 99.385C145.977 98.419 146.223 97.5757 146.713 96.855C147.219 96.1343 147.925 95.5747 148.829 95.176C149.734 94.7773 150.784 94.578 151.98 94.578C153.13 94.578 154.181 94.7543 155.131 95.107C156.082 95.4443 156.895 95.9427 157.569 96.602L156.902 98.074C156.182 97.43 155.423 96.97 154.625 96.694C153.843 96.4027 152.954 96.257 151.957 96.257C150.7 96.257 149.703 96.533 148.967 97.085C148.247 97.6217 147.886 98.3577 147.886 99.293C147.886 100.044 148.116 100.635 148.576 101.064C149.036 101.478 149.795 101.792 150.853 102.007L153.291 102.49C154.855 102.812 156.005 103.295 156.741 103.939C157.477 104.583 157.845 105.488 157.845 106.653C157.845 107.542 157.6 108.332 157.109 109.022C156.634 109.712 155.952 110.249 155.062 110.632C154.173 111.015 153.115 111.207 151.888 111.207Z" fill="white"/>
</svg>
