<svg width="179" height="179" viewBox="0 0 179 179" fill="none" xmlns="http://www.w3.org/2000/svg">
<path d="M170.84 36.73L174.74 46.37L90.22 148.9L6 46.31L7.81 36.73L31.77 30L89.43 58.41L152.21 30" fill="#173656"/>
<path d="M7.76001 149L7.79001 116.27H172.72V148.74M12.15 120.43V144.58H168.36V120.43H12.15Z" fill="#173656"/>
<path d="M168.36 120.43H12.15V144.58H168.36V120.43Z" fill="#10ABA0"/>
<path d="M166.92 39.1701L154.08 34.9301L88.98 66.9901L29.77 34.9301L13.51 39.3201L89.13 98.1701L166.92 39.1701Z" fill="#10ABA0"/>
<path d="M22.34 124.46V139.92H20V124.46H22.34ZM28.96 139.92L23.36 132.18L28.96 124.46H31.88L26.28 132.18L31.88 139.92H28.96Z" fill="white"/>
<path d="M45.2401 137.58H36.36L35.2701 139.92H32.6801L39.8901 124.46H41.6901L48.9401 139.92H46.3201L45.2401 137.58ZM44.16 135.24L40.8201 128.1L37.4901 135.24H44.16Z" fill="white"/>
<path d="M58.02 135.71L53.2599 129.11V139.92H50.9199V124.46H52.7899L58.8999 132.89L64.9899 124.46H66.8599V139.92H64.52V129.11L59.7599 135.71H58.02Z" fill="white"/>
<path d="M80.43 124.46V126.8H72.93V131.02H78.55V133.36H72.93V137.58H80.43V139.92H70.59V124.46H80.43Z" fill="white"/>
<path d="M93.9599 137.58H85.08L83.9899 139.92H81.3999L88.6099 124.46H90.4099L97.6599 139.92H95.0399L93.9599 137.58ZM92.8699 135.24L89.5299 128.1L86.2 135.24H92.8699Z" fill="white"/>
<path d="M107.13 124.46H108.54V138.51H116.04V139.92H107.14V124.46H107.13Z" fill="white"/>
<path d="M131.49 137.58H121.15L120.06 139.92H118.5L125.71 124.46H126.91L134.14 139.92H132.57L131.49 137.58ZM130.83 136.18L126.31 126.53L121.79 136.18H130.83Z" fill="white"/>
<path d="M136.17 124.46H142.73C143.89 124.46 144.88 124.87 145.71 125.7C146.53 126.52 146.95 127.52 146.95 128.68C146.95 129.84 146.54 130.84 145.71 131.66C145.57 131.8 145.43 131.92 145.28 132.04C145.6 132.23 145.9 132.46 146.18 132.73C147 133.55 147.42 134.55 147.42 135.71C147.42 136.87 147.01 137.87 146.18 138.69C145.36 139.51 144.36 139.93 143.2 139.93H136.17V124.46ZM137.6 125.87V131.49H142.73C143.5 131.49 144.17 131.22 144.72 130.67C145.27 130.12 145.54 129.46 145.54 128.68C145.54 127.91 145.27 127.24 144.72 126.69C144.17 126.14 143.51 125.87 142.73 125.87H137.6ZM137.6 132.9V138.52H143.2C143.98 138.52 144.64 138.25 145.19 137.7C145.74 137.15 146.01 136.49 146.01 135.71C146.01 134.94 145.74 134.27 145.19 133.72C144.64 133.17 143.98 132.9 143.2 132.9H137.6Z" fill="white"/>
<path d="M159.39 127.09C158.98 126.63 158.41 126.23 157.68 125.9C156.95 125.57 156.19 125.4 155.37 125.4C154.26 125.4 153.37 125.68 152.71 126.22C152.05 126.77 151.72 127.41 151.72 128.15C151.72 128.82 151.96 129.41 152.44 129.9C152.92 130.39 153.52 130.76 154.25 131L158.11 132.07C159.04 132.35 159.79 132.83 160.38 133.51C160.97 134.2 161.26 135.06 161.26 136.1C161.26 137.26 160.77 138.27 159.78 139.12C158.79 139.97 157.44 140.39 155.73 140.39C154.34 140.39 153.13 140.08 152.09 139.46C151.05 138.84 150.24 138.05 149.66 137.09L150.88 136.32C151.4 137.17 152.11 137.83 153.01 138.29C153.9 138.75 154.8 138.98 155.7 138.98C157.07 138.98 158.11 138.68 158.8 138.08C159.49 137.48 159.84 136.8 159.84 136.04C159.84 135.4 159.64 134.84 159.23 134.36C158.82 133.88 158.26 133.55 157.54 133.36L153.92 132.33C152.87 131.99 152.01 131.46 151.33 130.74C150.66 130.02 150.32 129.15 150.32 128.14C150.32 127.02 150.78 126.04 151.71 125.23C152.63 124.41 153.86 124 155.38 124C156.54 124 157.57 124.22 158.47 124.67C159.37 125.11 160.1 125.65 160.66 126.29L159.39 127.09Z" fill="white"/>
</svg>
