<svg width="770" height="154" viewBox="0 0 770 154" fill="none" xmlns="http://www.w3.org/2000/svg">
<path fill-rule="evenodd" clip-rule="evenodd" d="M0.286754 19.3374L14.1596 0.591414C14.4349 0.219404 14.8701 0 15.3326 0H35.4715C36.2777 0 36.9312 0.654157 36.9312 1.4611V49.2834C36.9312 50.7374 38.822 51.299 39.6144 50.0804L64.6848 11.5245C64.8619 11.2522 65.1246 11.0467 65.4314 10.9406L95.8606 0.413723C96.3412 0.247488 96.8735 0.343482 97.2658 0.667124L169.469 60.226C170.051 60.7063 170.171 61.5518 169.747 62.1761L113.715 144.509C113.525 144.789 113.244 144.993 112.92 145.089L83.3273 153.792C82.8829 153.923 82.403 153.835 82.034 153.555L39.1267 121.002C38.1654 120.273 36.7852 120.959 36.7852 122.167V135.332C36.7852 135.596 36.7133 135.856 36.5772 136.083L26.2625 153.291C25.9987 153.731 25.5235 154 25.0108 154H1.45973C0.653544 154 0 153.346 0 152.539V20.2071C0 19.8939 0.100525 19.589 0.286754 19.3374ZM103.341 34.0332L139.857 64.0803C141.006 65.0253 141.244 66.6914 140.406 67.9207L107.533 116.144C106.607 117.502 104.733 117.808 103.425 116.814L66.7995 88.9942C65.5979 88.0815 65.3066 86.394 66.1325 85.1307L99.1143 34.6797C100.05 33.2482 102.02 32.9468 103.341 34.0332ZM82.2561 21.5085C83.383 19.7807 85.7632 19.4233 87.3471 20.7439L96.0242 27.979C97.3691 29.1004 97.6604 31.053 96.7013 32.5188L61.8983 85.7107C60.908 87.2241 61.2543 89.2462 62.6916 90.3432L101.756 120.158C103.217 121.273 103.547 123.338 102.507 124.853L96.4813 133.634C95.3682 135.256 93.127 135.619 91.56 134.431L38.6164 94.2835C37.1739 93.1897 36.8225 91.1654 37.8118 89.6486L82.2561 21.5085ZM20.6708 3.06831C18.7676 3.06831 17.2248 4.61255 17.2248 6.51748V129.365C17.2248 131.27 18.7676 132.814 20.6708 132.814H30.1279C32.031 132.814 33.5738 131.27 33.5738 129.365V6.51749C33.5738 4.61256 32.031 3.06831 30.1279 3.06831H20.6708Z" fill="white"/>
<path d="M229.304 60.8571V122.143H220V60.8571H229.304ZM255.579 122.143L233.324 91.4629L255.579 60.8571H267.191L244.935 91.4629L267.191 122.143H255.579Z" fill="white"/>
<path d="M315.973 103.571L302.724 75.2686L289.475 103.571H315.973ZM320.29 112.857H285.009L280.692 122.143H270.42L299.077 60.8571H306.222L335.028 122.143H324.607L320.29 112.857Z" fill="white"/>
<path d="M371.054 105.429L352.148 79.28V122.143H342.844V60.8571H350.287L374.552 94.2857L398.743 60.8571H406.186V122.143H396.882V79.28L377.976 105.429H371.054Z" fill="white"/>
<path d="M460.061 60.8571V70.1429H430.288V86.8571H452.618V96.1429H430.288V112.857H460.061V122.143H420.984V60.8571H460.061Z" fill="white"/>
<path d="M509.47 103.571L496.221 75.2686L482.972 103.571H509.47ZM513.787 112.857H478.506L474.189 122.143H463.917L492.574 60.8571H499.719L528.525 122.143H518.104L513.787 112.857Z" fill="white"/>
<path d="M566.143 60.8571H571.725V116.571H601.498V122.143H566.143V60.8571Z" fill="white"/>
<path d="M649.121 107.286L631.182 69.0286L613.244 107.286H649.121ZM651.726 112.857H610.639L606.322 122.143H600.144L628.801 60.8571H633.564L662.295 122.143H656.043L651.726 112.857Z" fill="white"/>
<path d="M675.962 66.4286V88.7143H696.357C699.433 88.7143 702.063 87.6248 704.247 85.4457C706.43 83.2667 707.522 80.6419 707.522 77.5714C707.522 74.501 706.43 71.8762 704.247 69.6971C702.063 67.5181 699.433 66.4286 696.357 66.4286H675.962ZM675.962 94.2857V116.571H698.217C701.294 116.571 703.924 115.482 706.107 113.303C708.291 111.124 709.382 108.499 709.382 105.429C709.382 102.358 708.291 99.7333 706.107 97.5543C703.924 95.3752 701.294 94.2857 698.217 94.2857H675.962ZM670.305 60.8571H696.357C700.972 60.8571 704.916 62.4914 708.192 65.76C711.467 69.0286 713.104 72.9657 713.104 77.5714C713.104 82.1771 711.467 86.1143 708.192 89.3829C707.646 89.9276 707.075 90.4229 706.48 90.8686C707.77 91.6114 708.961 92.5276 710.052 93.6171C713.327 96.8857 714.965 100.823 714.965 105.429C714.965 110.034 713.327 113.971 710.052 117.24C706.777 120.509 702.832 122.143 698.217 122.143H670.305V60.8571Z" fill="white"/>
<path d="M762.557 71.2571C760.919 69.4248 758.661 67.8648 755.783 66.5771C752.905 65.24 749.853 64.5714 746.628 64.5714C742.212 64.5714 738.688 65.661 736.059 67.84C733.429 70.019 732.114 72.5695 732.114 75.4914C732.114 78.1657 733.056 80.4933 734.942 82.4743C736.877 84.4057 739.284 85.8419 742.162 86.7829L757.495 91.0171C761.167 92.1067 764.169 94.0133 766.502 96.7371C768.834 99.461 770 102.878 770 106.989C770 111.594 768.04 115.581 764.12 118.949C760.2 122.316 754.84 124 748.042 124C742.534 124 737.696 122.787 733.528 120.36C729.409 117.884 726.209 114.739 723.926 110.926L728.764 107.88C730.848 111.248 733.652 113.848 737.175 115.68C740.748 117.512 744.321 118.429 747.893 118.429C753.352 118.429 757.446 117.24 760.175 114.863C762.954 112.486 764.343 109.787 764.343 106.766C764.343 104.24 763.524 102.036 761.887 100.154C760.299 98.2229 758.066 96.8857 755.188 96.1429L740.822 92.0571C736.654 90.72 733.23 88.6152 730.551 85.7429C727.871 82.8705 726.531 79.4286 726.531 75.4171C726.531 70.96 728.367 67.1219 732.039 63.9029C735.711 60.6343 740.574 59 746.628 59C751.243 59 755.337 59.8914 758.909 61.6743C762.482 63.4076 765.385 65.5371 767.618 68.0629L762.557 71.2571Z" fill="white"/>
</svg>
